<?xml version="1.0" encoding="utf-8"?>
<!-- Generator: Adobe Illustrator 26.3.1, SVG Export Plug-In . SVG Version: 6.00 Build 0)  -->
<svg version="1.1" id="Calque_1" xmlns="http://www.w3.org/2000/svg" xmlns:xlink="http://www.w3.org/1999/xlink" x="0px" y="0px"
	 viewBox="0 0 668 700" style="enable-background:new 0 0 668 700;" xml:space="preserve">
<style type="text/css">
	.st0{fill:#be2d1f;}
</style>
<path class="st0" d="M207,38c10,0,36-3,53-5c24-4,35.9-18.3,34-26c-1.4-5.5-13-7-28-7c-45,0-87,12-87,24C179,32,190,38,207,38z"/>
<path class="st0" d="M491,257C448,131,369,59,272,59C172,59,70,140,27,251C11,293,0,357,0,410c0,159,105,290,233,290
	c113,0,220-101,256-241c8-32,11-63,16-93c54-11,100-25,135-39c22-9,28-14,28-23C668,264,517,259,491,257z M253,102c9,0,22,2,35,2h8
	c23-2,89,44,132,93c17,18,26,37,29,58l-292,24c0-3-2-6-2-13C163,194,214,102,253,102z M148,152l6,3c-24,60-27,73-36,137l-63,15
	C68,254,97,204,148,152z M463.6,454.8c-11,58-29.3,102.4-81.3,149.4c-57,53-103.2,66.6-150.2,66.6C126.1,670.8,40,537,40,368
	c0-40,6-33,68-52c8,6,17,13,28,13c18,0,19-23,95-34c50-8,141-12,231-19c8,38,12,70,12,97C474,406,467.6,433.8,463.6,454.8z
	 M504.7,334.8l-7-49c11-2,43.6-1.2,56.5-0.1c30.6,2.6,65,6.8,64.4,17.9C617.9,317.2,556.7,329.7,504.7,334.8L504.7,334.8z"/>
<path class="st0" d="M255.6,525.5c8.7,27.2,33.7,48,62.5,49.3c30.2,1.5,57.7-17.2,73.7-41.7c9-13.9,14.8-29.9,18.1-46.1
	c1.3-6.3-1.9-13-8.4-14.8c-6-1.6-13.4,2-14.8,8.4c-5.7,27.3-19.7,56.7-47.8,66.8c-12.4,4.5-25.6,4.9-36.8-1.1
	c-11-5.8-19.8-15.8-23.5-27.3c-1.9-6.3-8.4-10-14.7-8.4C257.9,512.4,253.6,519.3,255.6,525.5L255.6,525.5z"/>
<path class="st0" d="M333.5,373.6c6.1-17.5,18.2-26.4,28.2-15.9c14.6,15.4,28,56.8,20.5,78.7c-3.5,10.2-19.5,24.2-34.9,13
	S324.9,398.4,333.5,373.6z"/>
<path class="st0" d="M255.8,385.5c6.1-17.5,18.2-26.4,28.2-15.9c14.6,15.4,28,56.8,20.5,78.7c-3.5,10.2-19.5,24.2-34.9,13
	S247.2,410.2,255.8,385.5z"/>
</svg>
